# xmcd CD database file
#
# Track frame offsets:
#	150
#	15055
#	33259
#	44472
#	57733
#	72253
#	84206
#	97108
#	114082
#
# Disc length: 1700 seconds
#
# Revision: 0
# Processed by: cddbd v1.5.2PL0 Copyright (c) Steve Scherf et al.
# Submitted via: CDex 1.51
#
DISCID=6606a209
DTITLE=Wild Card - Wild Card
DYEAR=2007
DGENRE=Country
TTITLE0=Steppin' Up
TTITLE1=Trashy Woman
TTITLE2=Waiting For Friday
TTITLE3=Walkin' After Midnight
TTITLE4=Cryin' Time
TTITLE5=One Too Many Tears
TTITLE6=Six Days On The Road
TTITLE7=Why Didn't You Notice Me
TTITLE8=Statue Of A fool
EXTD=YEAR: 2007
EXTT0=
EXTT1=
EXTT2=
EXTT3=
EXTT4=
EXTT5=
EXTT6=
EXTT7=
EXTT8=
PLAYORDER=
